HIERARCHY
ROOT joint_Root
{
	OFFSET 0.0 0.0 0.0
	CHANNELS 6 Xposition Yposition Zposition Zrotation Xrotation Yrotation 
	JOINT Hips
	{
		OFFSET 4.5925 91.4895 -427.239
		CHANNELS 6 Xposition Yposition Zposition Zrotation Xrotation Yrotation 
		JOINT Spine
		{
			OFFSET 15.7357 0.0 0.0
			CHANNELS 6 Xposition Yposition Zposition Zrotation Xrotation Yrotation 
			JOINT Chest
			{
				OFFSET 8.98455 -0.406207 0.0
				CHANNELS 6 Xposition Yposition Zposition Zrotation Xrotation Yrotation 
				JOINT Neck
				{
					OFFSET 16.3773 0.0 0.0
					CHANNELS 6 Xposition Yposition Zposition Zrotation Xrotation Yrotation 
					JOINT Head
					{
						OFFSET 6.45672 0.0 0.0
						CHANNELS 6 Xposition Yposition Zposition Zrotation Xrotation Yrotation 
						End Site
						{
							OFFSET 0.0 0.0 0.0
						}
					}
				}
				JOINT Shoulder_L
				{
					OFFSET 12.9942 -0.242716 4.98039
					CHANNELS 6 Xposition Yposition Zposition Zrotation Xrotation Yrotation 
					JOINT UpperArm_L
					{
						OFFSET 5.34809 0.0 0.0
						CHANNELS 6 Xposition Yposition Zposition Zrotation Xrotation Yrotation 
						JOINT LowerArm_L
						{
							OFFSET 24.3286 1.87007e-05 0.0
							CHANNELS 6 Xposition Yposition Zposition Zrotation Xrotation Yrotation 
							JOINT Hand_L
							{
								OFFSET 22.2916 0.0 0.0
								CHANNELS 6 Xposition Yposition Zposition Zrotation Xrotation Yrotation 
								End Site
								{
									OFFSET 0.0 0.0 0.0
								}
							}
						}
					}
				}
				JOINT Shoulder_R
				{
					OFFSET 12.9945 -0.242716 -4.98039
					CHANNELS 6 Xposition Yposition Zposition Zrotation Xrotation Yrotation 
					JOINT UpperArm_R
					{
						OFFSET -5.34813 0.0 0.0
						CHANNELS 6 Xposition Yposition Zposition Zrotation Xrotation Yrotation 
						JOINT LowerArm_R
						{
							OFFSET -24.3289 0.000322201 0.0
							CHANNELS 6 Xposition Yposition Zposition Zrotation Xrotation Yrotation 
							JOINT Hand_R
							{
								OFFSET -22.2915 -0.000108084 0.0
								CHANNELS 6 Xposition Yposition Zposition Zrotation Xrotation Yrotation 
								End Site
								{
									OFFSET 0.0 0.0 0.0
								}
							}
						}
					}
				}
			}
		}
		JOINT UpperLeg_L
		{
			OFFSET -2.19248 -6.46944 0.0
			CHANNELS 6 Xposition Yposition Zposition Zrotation Xrotation Yrotation 
			JOINT LowerLeg_L
			{
				OFFSET 39.0811 0.0 -1.23785e-05
				CHANNELS 6 Xposition Yposition Zposition Zrotation Xrotation Yrotation 
				JOINT Foot_L
				{
					OFFSET 40.9854 0.0 -1.26872e-05
					CHANNELS 6 Xposition Yposition Zposition Zrotation Xrotation Yrotation 
					JOINT Toes_L
					{
						OFFSET 11.7543 0.0 0.0
						CHANNELS 6 Xposition Yposition Zposition Zrotation Xrotation Yrotation 
						End Site
						{
							OFFSET 0.0 0.0 0.0
						}
					}
				}
			}
		}
		JOINT UpperLeg_R
		{
			OFFSET -2.19251 6.46944 0.0
			CHANNELS 6 Xposition Yposition Zposition Zrotation Xrotation Yrotation 
			JOINT LowerLeg_R
			{
				OFFSET -39.0811 -0.00228153 -0.0401928
				CHANNELS 6 Xposition Yposition Zposition Zrotation Xrotation Yrotation 
				JOINT Foot_R
				{
					OFFSET -40.9854 0.0 0.0
					CHANNELS 6 Xposition Yposition Zposition Zrotation Xrotation Yrotation 
					JOINT Toes_R
					{
						OFFSET -11.7543 0.0 0.0
						CHANNELS 6 Xposition Yposition Zposition Zrotation Xrotation Yrotation 
						End Site
						{
							OFFSET 0.0 0.0 0.0
						}
					}
				}
			}
		}
	}
}
MOTION
Frames:	4
Frame Time:	0.0333333
0.000000 0.000000 0.000000 0.000000 0.000000 -0.000000 127.266000 89.265100 -37.710400 90.735000 -4.620910 -0.682927 15.735700 0.000005 -0.000001 91.562500 80.976100 -93.023200 8.984550 -0.406207 -0.000000 10.282900 0.456822 -2.960620 16.377300 -0.000001 -0.000001 -0.667026 -2.999670 1.573920 6.456720 -0.000001 -0.000000 -4.651130 -2.546460 1.909180 12.994200 -0.242716 4.980390 -90.977500 3.251090 -73.255300 5.348090 -0.000007 -0.000001 -63.706200 32.430400 -17.776000 24.328600 0.000019 0.000005 7.555030 17.118100 -24.256200 22.291600 -0.000001 0.000005 10.649400 5.346550 -1.274130 12.994500 -0.242716 -4.980390 88.655300 8.398750 -80.870200 -5.348130 -0.000001 -0.000004 -62.763300 32.936400 -11.623300 -24.328900 0.000322 -0.000009 -0.909328 -1.766520 -27.214900 -22.291500 -0.000108 -0.000004 16.817600 5.435760 -4.137500 -2.192480 -6.469440 -0.000000 178.088000 -7.761530 -23.061300 39.081100 -0.000007 -0.000012 -0.270406 0.334360 38.963900 40.985400 -0.000006 -0.000013 0.475936 -5.437590 -67.186800 11.754300 -0.000000 0.000003 -0.000048 -0.000543 -16.598700 -2.192510 6.469440 -0.000001 176.248000 18.370100 173.059000 -39.081100 -0.002282 -0.040193 0.023671 -0.026008 38.092400 -40.985400 0.000008 0.000006 5.843810 4.910680 -76.067800 -11.754300 -0.000006 -0.000006 -0.010786 -0.109421 -21.032200
0.000000 0.000000 0.000000 0.000000 0.000000 -0.000000 127.588000 89.003800 -35.516000 90.220600 -4.740900 -0.078290 15.735700 0.000005 -0.000001 90.674700 80.872700 -92.162100 8.984550 -0.406207 -0.000000 10.491400 0.178136 -2.989410 16.377300 -0.000001 -0.000001 -0.618299 -2.948150 1.295290 6.456720 -0.000001 -0.000000 -4.556750 -2.628930 2.160410 12.994200 -0.242716 4.980390 -90.972500 3.242270 -73.293100 5.348090 -0.000007 -0.000001 -62.282800 32.878300 -19.679500 24.328600 0.000019 0.000005 8.004320 16.714500 -26.055500 22.291600 -0.000001 0.000005 10.536500 5.351430 -1.420220 12.994500 -0.242716 -4.980390 88.620300 8.538270 -80.785600 -5.348130 -0.000001 -0.000004 -64.118500 31.603400 -9.450680 -24.328900 0.000322 -0.000009 -1.056550 -2.110120 -26.582400 -22.291500 -0.000108 -0.000004 16.706600 5.432920 -4.039130 -2.192480 -6.469440 -0.000000 178.552000 -8.576070 -21.550100 39.081100 -0.000007 -0.000012 -0.301860 0.353207 40.518700 40.985400 -0.000006 -0.000013 0.618894 -4.864940 -69.635200 11.754300 -0.000000 0.000003 -0.000109 -0.001104 -16.619800 -2.192510 6.469440 -0.000001 176.145000 16.864300 171.170000 -39.081100 -0.002282 -0.040193 0.055361 -0.052860 44.582600 -40.985400 0.000008 0.000006 5.167600 3.745830 -72.996200 -11.754300 -0.000006 -0.000006 -0.029448 -0.214921 -25.376600
0.000000 0.000000 0.000000 0.000000 0.000000 -0.000000 127.875000 88.828700 -33.420900 89.551800 -4.827770 0.664568 15.735700 0.000005 -0.000001 89.696300 80.667600 -91.089500 8.984550 -0.406207 -0.000000 10.898300 -0.136254 -2.771970 16.377300 -0.000001 -0.000001 -0.554106 -2.810760 1.129260 6.456720 -0.000001 -0.000000 -4.558070 -2.454300 2.206760 12.994200 -0.242716 4.980390 -90.956800 3.222840 -73.454600 5.348090 -0.000007 -0.000001 -60.903100 33.095900 -21.615700 24.328600 0.000019 0.000005 8.264610 15.907300 -27.922600 22.291600 -0.000001 0.000005 10.869600 5.357570 -1.605650 12.994500 -0.242716 -4.980390 88.603700 8.577260 -80.718000 -5.348130 -0.000001 -0.000004 -65.006500 30.514500 -7.876600 -24.328900 0.000322 -0.000009 -1.126710 -2.309640 -25.992200 -22.291500 -0.000108 -0.000004 16.422700 5.427580 -3.856190 -2.192480 -6.469440 -0.000000 179.290000 -9.575450 -19.607700 39.081100 -0.000007 -0.000012 -0.324423 0.366888 41.485600 40.985400 -0.000006 -0.000013 0.840237 -4.083280 -71.759400 11.754300 -0.000000 0.000003 -0.000153 -0.001477 -16.633700 -2.192510 6.469440 -0.000001 176.473000 14.883600 168.053000 -39.081100 -0.002282 -0.040193 0.094345 -0.070275 52.355000 -40.985400 0.000008 0.000006 3.520940 1.975310 -67.953900 -11.754300 -0.000006 -0.000006 -0.037799 -0.251216 -26.886400
0.000000 0.000000 0.000000 0.000000 0.000000 -0.000000 128.056000 88.752300 -31.455900 89.000600 -4.680280 1.084770 15.735700 0.000005 -0.000001 88.109200 80.553400 -89.392900 8.984550 -0.406207 -0.000000 11.111200 -0.656062 -2.502480 16.377300 -0.000001 -0.000001 -0.464445 -2.685630 1.026350 6.456720 -0.000001 -0.000000 -4.419100 -2.102640 2.259010 12.994200 -0.242716 4.980390 -90.916200 3.130880 -73.679900 5.348090 -0.000007 -0.000001 -59.516900 33.132000 -23.504500 24.328600 0.000019 0.000005 8.475930 15.118200 -29.742900 22.291600 -0.000001 0.000005 11.285000 5.358520 -1.634880 12.994500 -0.242716 -4.980390 88.572000 8.621500 -80.558300 -5.348130 -0.000001 -0.000004 -65.399100 30.182100 -6.899350 -24.328900 0.000322 -0.000009 -1.036820 -2.184730 -25.371400 -22.291500 -0.000108 -0.000004 16.261200 5.427240 -3.844800 -2.192480 -6.469440 -0.000000 179.953000 -10.034600 -17.778600 39.081100 -0.000007 -0.000012 -0.341862 0.382635 41.779600 40.985400 -0.000006 -0.000013 0.928267 -3.608400 -73.413400 11.754300 -0.000000 0.000003 -0.000176 -0.001665 -16.640600 -2.192510 6.469440 -0.000001 177.238000 13.818500 164.452000 -39.081100 -0.002282 -0.040193 0.123013 -0.071770 59.076700 -40.985400 0.000008 0.000006 3.407980 -0.600280 -63.258800 -11.754300 -0.000006 -0.000006 -0.019318 -0.163480 -23.251000
